<?xml version="1.0" encoding="utf-8"?>
<!-- Generator: Adobe Illustrator 25.2.3, SVG Export Plug-In . SVG Version: 6.00 Build 0)  -->
<svg version="1.1" id="Layer_1" xmlns="http://www.w3.org/2000/svg" xmlns:xlink="http://www.w3.org/1999/xlink" x="0px" y="0px"
	 viewBox="0 0 595.3 841.9" style="enable-background:new 0 0 595.3 841.9;" xml:space="preserve">
<style type="text/css">
	.st0{fill:#EE9E8B;}
</style>
<g>
	<path class="st0" d="M366,333h20.2c1.6,0,2.5,0.8,2.5,2.5v171c0,1.6-0.8,2.5-2.5,2.5h-37c-1.6,0-2.5-0.8-2.5-2.5v-72.8
		c0-1.1-0.3-1.9-1-2.1c-0.7-0.2-1.3,0-2,0.9l-44.7,65.1c-0.5,0.7-1.1,1-1.7,1c-0.7,0-1.2-0.3-1.7-1l-44.4-64.9c-0.5-0.7-1-1-1.5-1
		c-1,0-1.5,0.7-1.5,2v72.8c0,1.6-0.8,2.5-2.5,2.5h-37c-1.6,0-2.5-0.8-2.5-2.5v-171c0-1.6,0.8-2.5,2.5-2.5H229c1.5,0,2.5,0.5,3.2,1.5
		l63.4,97.5c0.5,0.7,1.1,1,1.7,1c0.7,0,1.2-0.3,1.7-1l63.7-97.5C363.4,333.5,364.5,333,366,333z"/>
</g>
</svg>
